<svg xmlns="http://www.w3.org/2000/svg" width="39.37" height="32.929" viewBox="0 0 39.37 32.929"><defs><style>.a{fill:#fff;}</style></defs><g transform="translate(-28 -356.629)"><path class="a" d="M15.48,330.1H33.386a.832.832,0,0,0,.767-.481l5.267-11.58a.862.862,0,0,0-.059-.815.853.853,0,0,0-.709-.4H24.818a6.3,6.3,0,0,0-6.107-4.74H17.388a.836.836,0,0,0-.811.606l-1.544,5.436-1-1.8.941-3a.888.888,0,0,0-.125-.772.864.864,0,0,0-.679-.365H10.818a.873.873,0,0,0-.8,1.126l.944,3.021-.836,1.617-1.379-5.373a.843.843,0,0,0-.885-.63l-1.459.12a6.308,6.308,0,0,0-4.635,2.073,6.13,6.13,0,0,0-1.6,4.807v10.329a.826.826,0,0,0,.848.816Zm17.364-1.685H16.789l4.5-9.9H37.345ZM13.018,313.882l-.521,1.685h-.012l-.52-1.685ZM1.85,318.832a4.607,4.607,0,0,1,4.584-5.069l.069,0,.784-.064,1.751,6.825,0,.012c.006.021.012.041.019.061s0,.013.007.02.015.038.024.057l.01.021c.009.017.018.035.028.051l.013.021c.01.016.021.032.032.047l.015.02c.012.015.024.03.037.044l.015.016c.014.015.029.029.044.043l.013.012c.017.015.035.029.053.042l.009.007c.02.014.04.028.061.04l.005,0c.022.013.044.025.067.036l0,0c.023.011.046.02.07.029l.006,0,.069.021.012,0,.064.013.02,0,.059.006.026,0h.05c.025,0,.051,0,.076-.006L10,321.14l.06-.012.011,0,.046-.014.056-.021.038-.016a.965.965,0,0,0,.086-.047l.02-.014c.023-.015.044-.031.065-.048l.023-.02a.818.818,0,0,0,.066-.065l.007-.008a.76.76,0,0,0,.061-.079l.018-.028a.7.7,0,0,0,.038-.066c0-.006.007-.021.01-.028l1.768-3.42h.243l1.933,3.462a.847.847,0,0,0,.735.436.818.818,0,0,0,.811-.6l1.924-6.772h.686a4.61,4.61,0,0,1,4.352,3.055H20.747a.843.843,0,0,0-.767.494l-5.042,11.093H1.851v-9.5a.841.841,0,0,0,0-.085Zm0,0" transform="translate(27.874 59.455)"/><path class="a" d="M58.508,177.738v2.1a6.109,6.109,0,0,0,12.218,0v-2.1a6.109,6.109,0,0,0-12.218,0Zm10.533,0v2.1a4.424,4.424,0,1,1-8.848,0v-2.1a4.424,4.424,0,0,1,8.848,0Zm0,0" transform="translate(-24.358 185)"/></g></svg>