<svg xmlns="http://www.w3.org/2000/svg" width="31.708" height="30.995" viewBox="0 0 31.708 30.995"><defs><style>.a{fill:#fff;}</style></defs><g transform="translate(-10 -21)"><path class="a" d="M32.211,27.895V22.55A1.554,1.554,0,0,0,30.661,21H11.55A1.554,1.554,0,0,0,10,22.55v21.9a1.583,1.583,0,0,0,.825,1.369l11.777,6.1a.782.782,0,0,0,1.136-.7V45.275h6.921a1.554,1.554,0,0,0,1.55-1.55v-8.47h-3.1V41.4a.76.76,0,0,1-.773.776H23.767V29.03a1.58,1.58,0,0,0-.828-1.369L15.992,24.1H28.338a.76.76,0,0,1,.773.777v3.048h3.1v-.026Z"/><path class="a" d="M509.5,140.861l5.038,5.038a1.547,1.547,0,0,1,0,2.245l-5.038,5.038a1.581,1.581,0,0,1-2.275.026,1.65,1.65,0,0,1,.052-2.275l2.271-2.245h-8.8a1.519,1.519,0,0,1-1.161-.518,1.751,1.751,0,0,1,.388-2.66,1.659,1.659,0,0,1,.776-.207h8.8s-2.245-2.249-2.271-2.249a1.562,1.562,0,1,1,2.22-2.194" transform="translate(-473.31 -115.499)"/></g></svg>