<svg xmlns="http://www.w3.org/2000/svg" width="27" height="27.136" viewBox="0 0 27 27.136"><defs><style>.a{fill:#fff;}</style></defs><path class="a" d="M266.384,43.879a1.409,1.409,0,0,0-.86,0l-12.107,3.9a1.394,1.394,0,0,0-.964,1.334h.01V65.642a1.394,1.394,0,0,0,.964,1.334l11.93,3.848.173.056a1.4,1.4,0,0,0,.856,0l12.1-3.9a1.393,1.393,0,0,0,.962-1.335V49.116h.009a1.4,1.4,0,0,0-.967-1.334Zm-.431,2.807,7.54,2.432-7.541,2.432-7.539-2.432Zm-10.688,4.356,9.111,2.945V67.565l-9.111-2.944ZM267.18,67.678V54.1l9.461-3.057v13.58Zm0,0" transform="translate(-252.453 -43.812)"/></svg>