<svg xmlns="http://www.w3.org/2000/svg" width="28.951" height="29.008" viewBox="0 0 28.951 29.008"><defs><style>.a{fill:#652680;}</style></defs><g transform="translate(-0.5)"><path class="a" d="M20.539,12.238A7.511,7.511,0,0,0,18.273,6.7a7.52,7.52,0,0,0-5.535-2.266A7.52,7.52,0,0,0,7.2,6.7a7.52,7.52,0,0,0-2.266,5.535A7.52,7.52,0,0,0,7.2,17.773a7.52,7.52,0,0,0,5.535,2.266,7.52,7.52,0,0,0,5.535-2.266A7.923,7.923,0,0,0,20.539,12.238Zm8.912,14.5a2.16,2.16,0,0,1-.686,1.581,2.082,2.082,0,0,1-1.581.686,1.993,1.993,0,0,1-1.581-.686l-5.909-6.011a11.81,11.81,0,0,1-6.963,2.164,11.9,11.9,0,0,1-4.748-.952,11.388,11.388,0,0,1-3.9-2.634,14.464,14.464,0,0,1-2.634-3.9A12.389,12.389,0,0,1,.5,12.238,12.105,12.105,0,0,1,1.452,7.49a11.388,11.388,0,0,1,2.634-3.9A14.464,14.464,0,0,1,7.99.952,12.262,12.262,0,0,1,12.732,0,12.105,12.105,0,0,1,17.48.952a11.388,11.388,0,0,1,3.9,2.634,14.464,14.464,0,0,1,2.634,3.9A12.3,12.3,0,0,1,22.805,19.2l5.96,5.955A2.012,2.012,0,0,1,29.451,26.742Z"/></g></svg>